<mxfile host="app.diagrams.net" agent="Mozilla/5.0 (Windows NT 10.0; Win64; x64) AppleWebKit/537.36 (KHTML, like Gecko) Chrome/124.0.0.0 Safari/537.36" version="25.0.1">
  <diagram name="Page-1" id="9f46799a-70d6-7492-0946-bef42562c5a5">
    <mxGraphModel dx="1272" dy="530" grid="1" gridSize="10" guides="1" tooltips="1" connect="1" arrows="1" fold="1" page="1" pageScale="1" pageWidth="1100" pageHeight="850" background="none" math="0" shadow="0">
      <root>
        <mxCell id="0" />
        <mxCell id="1" parent="0" />
        <mxCell id="ReFvs0mVMOwca52qcI3t-66" value="" style="rounded=0;whiteSpace=wrap;html=1;" vertex="1" parent="1">
          <mxGeometry x="40" y="40" width="980" height="540" as="geometry" />
        </mxCell>
        <mxCell id="ReFvs0mVMOwca52qcI3t-1" value="Usuários" style="rounded=0;whiteSpace=wrap;html=1;" vertex="1" parent="1">
          <mxGeometry x="605.06" y="140" width="120" height="60" as="geometry" />
        </mxCell>
        <mxCell id="ReFvs0mVMOwca52qcI3t-2" value="Estudante" style="rounded=0;whiteSpace=wrap;html=1;" vertex="1" parent="1">
          <mxGeometry x="335.06" y="250" width="120" height="60" as="geometry" />
        </mxCell>
        <mxCell id="ReFvs0mVMOwca52qcI3t-3" value="Professor" style="rounded=0;whiteSpace=wrap;html=1;" vertex="1" parent="1">
          <mxGeometry x="745.06" y="270" width="120" height="60" as="geometry" />
        </mxCell>
        <mxCell id="ReFvs0mVMOwca52qcI3t-4" value="&lt;u&gt;id&lt;/u&gt;" style="ellipse;whiteSpace=wrap;html=1;" vertex="1" parent="1">
          <mxGeometry x="505.06" y="140" width="60" height="40" as="geometry" />
        </mxCell>
        <mxCell id="ReFvs0mVMOwca52qcI3t-5" value="telefone" style="ellipse;whiteSpace=wrap;html=1;" vertex="1" parent="1">
          <mxGeometry x="775.06" y="120" width="60" height="40" as="geometry" />
        </mxCell>
        <mxCell id="ReFvs0mVMOwca52qcI3t-6" value="cpf" style="ellipse;whiteSpace=wrap;html=1;" vertex="1" parent="1">
          <mxGeometry x="550" y="60" width="60" height="40" as="geometry" />
        </mxCell>
        <mxCell id="ReFvs0mVMOwca52qcI3t-7" value="email" style="ellipse;whiteSpace=wrap;html=1;" vertex="1" parent="1">
          <mxGeometry x="625.06" y="60" width="60" height="40" as="geometry" />
        </mxCell>
        <mxCell id="ReFvs0mVMOwca52qcI3t-8" value="Endereço" style="ellipse;whiteSpace=wrap;html=1;" vertex="1" parent="1">
          <mxGeometry x="700" y="50" width="60" height="40" as="geometry" />
        </mxCell>
        <mxCell id="ReFvs0mVMOwca52qcI3t-9" value="nome" style="ellipse;whiteSpace=wrap;html=1;" vertex="1" parent="1">
          <mxGeometry x="505.06" y="90" width="60" height="40" as="geometry" />
        </mxCell>
        <mxCell id="ReFvs0mVMOwca52qcI3t-10" value="senha" style="ellipse;whiteSpace=wrap;html=1;" vertex="1" parent="1">
          <mxGeometry x="765.06" y="70" width="60" height="40" as="geometry" />
        </mxCell>
        <mxCell id="ReFvs0mVMOwca52qcI3t-11" value="tipo" style="ellipse;whiteSpace=wrap;html=1;" vertex="1" parent="1">
          <mxGeometry x="765.06" y="180" width="60" height="40" as="geometry" />
        </mxCell>
        <mxCell id="ReFvs0mVMOwca52qcI3t-12" value="" style="endArrow=none;html=1;rounded=0;exitX=-0.001;exitY=0.222;exitDx=0;exitDy=0;exitPerimeter=0;" edge="1" parent="1" source="ReFvs0mVMOwca52qcI3t-1" target="ReFvs0mVMOwca52qcI3t-4">
          <mxGeometry width="50" height="50" relative="1" as="geometry">
            <mxPoint x="606.06" y="155" as="sourcePoint" />
            <mxPoint x="543.54" y="146.04" as="targetPoint" />
          </mxGeometry>
        </mxCell>
        <mxCell id="ReFvs0mVMOwca52qcI3t-13" value="" style="endArrow=none;html=1;rounded=0;entryX=1;entryY=1;entryDx=0;entryDy=0;exitX=0;exitY=0;exitDx=0;exitDy=0;" edge="1" parent="1" source="ReFvs0mVMOwca52qcI3t-1" target="ReFvs0mVMOwca52qcI3t-9">
          <mxGeometry width="50" height="50" relative="1" as="geometry">
            <mxPoint x="615.06" y="163" as="sourcePoint" />
            <mxPoint x="553.54" y="156.04" as="targetPoint" />
          </mxGeometry>
        </mxCell>
        <mxCell id="ReFvs0mVMOwca52qcI3t-14" value="" style="endArrow=none;html=1;rounded=0;entryX=0.532;entryY=1.01;entryDx=0;entryDy=0;entryPerimeter=0;exitX=0.234;exitY=0.012;exitDx=0;exitDy=0;exitPerimeter=0;" edge="1" parent="1" source="ReFvs0mVMOwca52qcI3t-1" target="ReFvs0mVMOwca52qcI3t-6">
          <mxGeometry width="50" height="50" relative="1" as="geometry">
            <mxPoint x="646.5799999999999" y="106.96" as="sourcePoint" />
            <mxPoint x="585.06" y="99.99999999999999" as="targetPoint" />
          </mxGeometry>
        </mxCell>
        <mxCell id="ReFvs0mVMOwca52qcI3t-15" value="" style="endArrow=none;html=1;rounded=0;entryX=0.33;entryY=0.962;entryDx=0;entryDy=0;entryPerimeter=0;exitX=0.337;exitY=0.005;exitDx=0;exitDy=0;exitPerimeter=0;" edge="1" parent="1" source="ReFvs0mVMOwca52qcI3t-1" target="ReFvs0mVMOwca52qcI3t-7">
          <mxGeometry width="50" height="50" relative="1" as="geometry">
            <mxPoint x="643.06" y="151" as="sourcePoint" />
            <mxPoint x="597.06" y="80" as="targetPoint" />
          </mxGeometry>
        </mxCell>
        <mxCell id="ReFvs0mVMOwca52qcI3t-16" value="" style="endArrow=none;html=1;rounded=0;exitX=0.645;exitY=-0.006;exitDx=0;exitDy=0;exitPerimeter=0;" edge="1" parent="1" source="ReFvs0mVMOwca52qcI3t-1" target="ReFvs0mVMOwca52qcI3t-8">
          <mxGeometry width="50" height="50" relative="1" as="geometry">
            <mxPoint x="653.06" y="161" as="sourcePoint" />
            <mxPoint x="607.06" y="90" as="targetPoint" />
          </mxGeometry>
        </mxCell>
        <mxCell id="ReFvs0mVMOwca52qcI3t-17" value="" style="endArrow=none;html=1;rounded=0;exitX=0.864;exitY=-0.002;exitDx=0;exitDy=0;exitPerimeter=0;entryX=0.034;entryY=0.698;entryDx=0;entryDy=0;entryPerimeter=0;" edge="1" parent="1" source="ReFvs0mVMOwca52qcI3t-1" target="ReFvs0mVMOwca52qcI3t-10">
          <mxGeometry width="50" height="50" relative="1" as="geometry">
            <mxPoint x="692.06" y="150" as="sourcePoint" />
            <mxPoint x="733.06" y="88" as="targetPoint" />
          </mxGeometry>
        </mxCell>
        <mxCell id="ReFvs0mVMOwca52qcI3t-18" value="" style="endArrow=none;html=1;rounded=0;exitX=1.003;exitY=0.14;exitDx=0;exitDy=0;exitPerimeter=0;" edge="1" parent="1" source="ReFvs0mVMOwca52qcI3t-1" target="ReFvs0mVMOwca52qcI3t-5">
          <mxGeometry width="50" height="50" relative="1" as="geometry">
            <mxPoint x="719.06" y="150" as="sourcePoint" />
            <mxPoint x="777.06" y="98" as="targetPoint" />
          </mxGeometry>
        </mxCell>
        <mxCell id="ReFvs0mVMOwca52qcI3t-19" value="" style="endArrow=none;html=1;rounded=0;exitX=1;exitY=0.5;exitDx=0;exitDy=0;entryX=0;entryY=0.464;entryDx=0;entryDy=0;entryPerimeter=0;" edge="1" parent="1" source="ReFvs0mVMOwca52qcI3t-1" target="ReFvs0mVMOwca52qcI3t-11">
          <mxGeometry width="50" height="50" relative="1" as="geometry">
            <mxPoint x="735.06" y="158" as="sourcePoint" />
            <mxPoint x="787.06" y="147" as="targetPoint" />
          </mxGeometry>
        </mxCell>
        <mxCell id="ReFvs0mVMOwca52qcI3t-20" value="" style="triangle;whiteSpace=wrap;html=1;rotation=-90;" vertex="1" parent="1">
          <mxGeometry x="610" y="240" width="60" height="80" as="geometry" />
        </mxCell>
        <mxCell id="ReFvs0mVMOwca52qcI3t-21" value="" style="endArrow=none;html=1;rounded=0;entryX=0;entryY=0.5;entryDx=0;entryDy=0;exitX=0.5;exitY=1;exitDx=0;exitDy=0;" edge="1" parent="1" source="ReFvs0mVMOwca52qcI3t-20" target="ReFvs0mVMOwca52qcI3t-3">
          <mxGeometry width="50" height="50" relative="1" as="geometry">
            <mxPoint x="770" y="240" as="sourcePoint" />
            <mxPoint x="820" y="190" as="targetPoint" />
          </mxGeometry>
        </mxCell>
        <mxCell id="ReFvs0mVMOwca52qcI3t-22" value="" style="endArrow=none;html=1;rounded=0;exitX=1;exitY=0.5;exitDx=0;exitDy=0;" edge="1" parent="1" source="ReFvs0mVMOwca52qcI3t-2" target="ReFvs0mVMOwca52qcI3t-20">
          <mxGeometry width="50" height="50" relative="1" as="geometry">
            <mxPoint x="390" y="305" as="sourcePoint" />
            <mxPoint x="440" y="255" as="targetPoint" />
          </mxGeometry>
        </mxCell>
        <mxCell id="ReFvs0mVMOwca52qcI3t-23" value="rg" style="ellipse;whiteSpace=wrap;html=1;" vertex="1" parent="1">
          <mxGeometry x="280.06" y="170" width="60" height="40" as="geometry" />
        </mxCell>
        <mxCell id="ReFvs0mVMOwca52qcI3t-24" value="" style="endArrow=none;html=1;rounded=0;entryX=0.5;entryY=1;entryDx=0;entryDy=0;exitX=0.25;exitY=0;exitDx=0;exitDy=0;" edge="1" parent="1" source="ReFvs0mVMOwca52qcI3t-2" target="ReFvs0mVMOwca52qcI3t-23">
          <mxGeometry width="50" height="50" relative="1" as="geometry">
            <mxPoint x="480" y="333" as="sourcePoint" />
            <mxPoint x="418.48" y="326.03999999999996" as="targetPoint" />
          </mxGeometry>
        </mxCell>
        <mxCell id="ReFvs0mVMOwca52qcI3t-25" value="nivel" style="ellipse;whiteSpace=wrap;html=1;" vertex="1" parent="1">
          <mxGeometry x="380" y="180" width="60" height="40" as="geometry" />
        </mxCell>
        <mxCell id="ReFvs0mVMOwca52qcI3t-26" value="" style="endArrow=none;html=1;rounded=0;entryX=0.693;entryY=1.009;entryDx=0;entryDy=0;entryPerimeter=0;exitX=0.75;exitY=0;exitDx=0;exitDy=0;" edge="1" parent="1" source="ReFvs0mVMOwca52qcI3t-2" target="ReFvs0mVMOwca52qcI3t-25">
          <mxGeometry width="50" height="50" relative="1" as="geometry">
            <mxPoint x="570" y="313" as="sourcePoint" />
            <mxPoint x="508.48" y="306.03999999999996" as="targetPoint" />
          </mxGeometry>
        </mxCell>
        <mxCell id="ReFvs0mVMOwca52qcI3t-27" value="departamento" style="ellipse;whiteSpace=wrap;html=1;" vertex="1" parent="1">
          <mxGeometry x="910" y="280" width="90" height="40" as="geometry" />
        </mxCell>
        <mxCell id="ReFvs0mVMOwca52qcI3t-28" value="" style="endArrow=none;html=1;rounded=0;entryX=0;entryY=0.5;entryDx=0;entryDy=0;exitX=1;exitY=0.5;exitDx=0;exitDy=0;" edge="1" parent="1" source="ReFvs0mVMOwca52qcI3t-3" target="ReFvs0mVMOwca52qcI3t-27">
          <mxGeometry width="50" height="50" relative="1" as="geometry">
            <mxPoint x="940" y="323" as="sourcePoint" />
            <mxPoint x="878.48" y="316.03999999999996" as="targetPoint" />
          </mxGeometry>
        </mxCell>
        <mxCell id="ReFvs0mVMOwca52qcI3t-29" value="" style="endArrow=none;html=1;rounded=0;entryX=0.5;entryY=1;entryDx=0;entryDy=0;exitX=1;exitY=0.5;exitDx=0;exitDy=0;" edge="1" parent="1" source="ReFvs0mVMOwca52qcI3t-20" target="ReFvs0mVMOwca52qcI3t-1">
          <mxGeometry width="50" height="50" relative="1" as="geometry">
            <mxPoint x="770" y="240" as="sourcePoint" />
            <mxPoint x="820" y="190" as="targetPoint" />
          </mxGeometry>
        </mxCell>
        <mxCell id="ReFvs0mVMOwca52qcI3t-30" value="Turma" style="rounded=0;whiteSpace=wrap;html=1;" vertex="1" parent="1">
          <mxGeometry x="580" y="410" width="120" height="60" as="geometry" />
        </mxCell>
        <mxCell id="ReFvs0mVMOwca52qcI3t-31" value="" style="endArrow=none;html=1;rounded=0;entryX=0.5;entryY=1;entryDx=0;entryDy=0;exitX=0.161;exitY=0.006;exitDx=0;exitDy=0;exitPerimeter=0;" edge="1" parent="1" source="ReFvs0mVMOwca52qcI3t-30" target="ReFvs0mVMOwca52qcI3t-2">
          <mxGeometry width="50" height="50" relative="1" as="geometry">
            <mxPoint x="550" y="500" as="sourcePoint" />
            <mxPoint x="505" y="440" as="targetPoint" />
          </mxGeometry>
        </mxCell>
        <mxCell id="ReFvs0mVMOwca52qcI3t-32" value="N" style="edgeLabel;html=1;align=center;verticalAlign=middle;resizable=0;points=[];" vertex="1" connectable="0" parent="ReFvs0mVMOwca52qcI3t-31">
          <mxGeometry x="0.2866" y="1" relative="1" as="geometry">
            <mxPoint y="-24" as="offset" />
          </mxGeometry>
        </mxCell>
        <mxCell id="ReFvs0mVMOwca52qcI3t-33" value="1" style="edgeLabel;html=1;align=center;verticalAlign=middle;resizable=0;points=[];" vertex="1" connectable="0" parent="ReFvs0mVMOwca52qcI3t-31">
          <mxGeometry x="-0.5496" y="1" relative="1" as="geometry">
            <mxPoint x="16" as="offset" />
          </mxGeometry>
        </mxCell>
        <mxCell id="ReFvs0mVMOwca52qcI3t-34" value="nome" style="ellipse;whiteSpace=wrap;html=1;" vertex="1" parent="1">
          <mxGeometry x="610" y="495" width="60" height="40" as="geometry" />
        </mxCell>
        <mxCell id="ReFvs0mVMOwca52qcI3t-35" value="&lt;u&gt;id&lt;/u&gt;" style="ellipse;whiteSpace=wrap;html=1;" vertex="1" parent="1">
          <mxGeometry x="740" y="420" width="60" height="40" as="geometry" />
        </mxCell>
        <mxCell id="ReFvs0mVMOwca52qcI3t-38" value="Atividade" style="rounded=0;whiteSpace=wrap;html=1;" vertex="1" parent="1">
          <mxGeometry x="365.06" y="445" width="120" height="60" as="geometry" />
        </mxCell>
        <mxCell id="ReFvs0mVMOwca52qcI3t-39" value="nome" style="ellipse;whiteSpace=wrap;html=1;" vertex="1" parent="1">
          <mxGeometry x="440" y="520" width="60" height="40" as="geometry" />
        </mxCell>
        <mxCell id="ReFvs0mVMOwca52qcI3t-40" value="&lt;u&gt;id&lt;/u&gt;" style="ellipse;whiteSpace=wrap;html=1;" vertex="1" parent="1">
          <mxGeometry x="335.06" y="530" width="60" height="40" as="geometry" />
        </mxCell>
        <mxCell id="ReFvs0mVMOwca52qcI3t-42" value="" style="endArrow=none;html=1;rounded=0;entryX=0.5;entryY=1;entryDx=0;entryDy=0;exitX=0.5;exitY=0;exitDx=0;exitDy=0;" edge="1" parent="1" target="ReFvs0mVMOwca52qcI3t-38" source="ReFvs0mVMOwca52qcI3t-39">
          <mxGeometry width="50" height="50" relative="1" as="geometry">
            <mxPoint x="416.2732034355964" y="668.3578643762689" as="sourcePoint" />
            <mxPoint x="505.06" y="632.5" as="targetPoint" />
          </mxGeometry>
        </mxCell>
        <mxCell id="ReFvs0mVMOwca52qcI3t-44" value="" style="endArrow=none;html=1;rounded=0;entryX=0.5;entryY=1;entryDx=0;entryDy=0;exitX=0.819;exitY=0.015;exitDx=0;exitDy=0;exitPerimeter=0;" edge="1" parent="1" source="ReFvs0mVMOwca52qcI3t-30" target="ReFvs0mVMOwca52qcI3t-3">
          <mxGeometry width="50" height="50" relative="1" as="geometry">
            <mxPoint x="830" y="560" as="sourcePoint" />
            <mxPoint x="880" y="510" as="targetPoint" />
          </mxGeometry>
        </mxCell>
        <mxCell id="ReFvs0mVMOwca52qcI3t-64" value="1" style="edgeLabel;html=1;align=center;verticalAlign=middle;resizable=0;points=[];" vertex="1" connectable="0" parent="ReFvs0mVMOwca52qcI3t-44">
          <mxGeometry x="0.6172" relative="1" as="geometry">
            <mxPoint x="-16" as="offset" />
          </mxGeometry>
        </mxCell>
        <mxCell id="ReFvs0mVMOwca52qcI3t-65" value="N" style="edgeLabel;html=1;align=center;verticalAlign=middle;resizable=0;points=[];" vertex="1" connectable="0" parent="ReFvs0mVMOwca52qcI3t-44">
          <mxGeometry x="-0.5047" y="2" relative="1" as="geometry">
            <mxPoint x="-18" as="offset" />
          </mxGeometry>
        </mxCell>
        <mxCell id="ReFvs0mVMOwca52qcI3t-45" value="descricao" style="ellipse;whiteSpace=wrap;html=1;" vertex="1" parent="1">
          <mxGeometry x="220" y="455" width="60" height="40" as="geometry" />
        </mxCell>
        <mxCell id="ReFvs0mVMOwca52qcI3t-46" value="nivel_dificuldade" style="ellipse;whiteSpace=wrap;html=1;" vertex="1" parent="1">
          <mxGeometry x="200" y="510" width="110" height="40" as="geometry" />
        </mxCell>
        <mxCell id="ReFvs0mVMOwca52qcI3t-47" value="" style="endArrow=none;html=1;rounded=0;exitX=1;exitY=0.5;exitDx=0;exitDy=0;" edge="1" parent="1" source="ReFvs0mVMOwca52qcI3t-46" target="ReFvs0mVMOwca52qcI3t-38">
          <mxGeometry width="50" height="50" relative="1" as="geometry">
            <mxPoint x="175.06" y="520" as="sourcePoint" />
            <mxPoint x="225.06" y="470" as="targetPoint" />
          </mxGeometry>
        </mxCell>
        <mxCell id="ReFvs0mVMOwca52qcI3t-48" value="" style="endArrow=none;html=1;rounded=0;entryX=0;entryY=0.5;entryDx=0;entryDy=0;exitX=1;exitY=0.5;exitDx=0;exitDy=0;" edge="1" parent="1" source="ReFvs0mVMOwca52qcI3t-45" target="ReFvs0mVMOwca52qcI3t-38">
          <mxGeometry width="50" height="50" relative="1" as="geometry">
            <mxPoint x="255.06" y="685" as="sourcePoint" />
            <mxPoint x="305.06" y="635" as="targetPoint" />
          </mxGeometry>
        </mxCell>
        <mxCell id="ReFvs0mVMOwca52qcI3t-49" value="" style="endArrow=none;html=1;rounded=0;entryX=0;entryY=0.5;entryDx=0;entryDy=0;exitX=1;exitY=0.5;exitDx=0;exitDy=0;" edge="1" parent="1" source="ReFvs0mVMOwca52qcI3t-30" target="ReFvs0mVMOwca52qcI3t-35">
          <mxGeometry width="50" height="50" relative="1" as="geometry">
            <mxPoint x="760" y="580" as="sourcePoint" />
            <mxPoint x="810" y="530" as="targetPoint" />
          </mxGeometry>
        </mxCell>
        <mxCell id="ReFvs0mVMOwca52qcI3t-50" value="" style="endArrow=none;html=1;rounded=0;exitX=1;exitY=0;exitDx=0;exitDy=0;" edge="1" parent="1" source="ReFvs0mVMOwca52qcI3t-40" target="ReFvs0mVMOwca52qcI3t-38">
          <mxGeometry width="50" height="50" relative="1" as="geometry">
            <mxPoint x="410.06" y="750" as="sourcePoint" />
            <mxPoint x="460.06" y="700" as="targetPoint" />
          </mxGeometry>
        </mxCell>
        <mxCell id="ReFvs0mVMOwca52qcI3t-51" value="" style="endArrow=none;html=1;rounded=0;entryX=0;entryY=0.5;entryDx=0;entryDy=0;exitX=1;exitY=0.5;exitDx=0;exitDy=0;" edge="1" parent="1" source="ReFvs0mVMOwca52qcI3t-38" target="ReFvs0mVMOwca52qcI3t-30">
          <mxGeometry width="50" height="50" relative="1" as="geometry">
            <mxPoint x="520" y="580" as="sourcePoint" />
            <mxPoint x="570" y="530" as="targetPoint" />
          </mxGeometry>
        </mxCell>
        <mxCell id="ReFvs0mVMOwca52qcI3t-52" value="1" style="edgeLabel;html=1;align=center;verticalAlign=middle;resizable=0;points=[];" vertex="1" connectable="0" parent="ReFvs0mVMOwca52qcI3t-51">
          <mxGeometry x="0.6886" y="2" relative="1" as="geometry">
            <mxPoint x="-2" y="-5" as="offset" />
          </mxGeometry>
        </mxCell>
        <mxCell id="ReFvs0mVMOwca52qcI3t-53" value="N" style="edgeLabel;html=1;align=center;verticalAlign=middle;resizable=0;points=[];" vertex="1" connectable="0" parent="ReFvs0mVMOwca52qcI3t-51">
          <mxGeometry x="-0.7404" relative="1" as="geometry">
            <mxPoint y="-8" as="offset" />
          </mxGeometry>
        </mxCell>
        <mxCell id="ReFvs0mVMOwca52qcI3t-54" value="estudanteAtividade" style="rounded=0;whiteSpace=wrap;html=1;" vertex="1" parent="1">
          <mxGeometry x="190" y="330" width="120" height="60" as="geometry" />
        </mxCell>
        <mxCell id="ReFvs0mVMOwca52qcI3t-55" value="" style="endArrow=none;html=1;rounded=0;entryX=0;entryY=0.5;entryDx=0;entryDy=0;exitX=0.5;exitY=0;exitDx=0;exitDy=0;" edge="1" parent="1" source="ReFvs0mVMOwca52qcI3t-54" target="ReFvs0mVMOwca52qcI3t-2">
          <mxGeometry width="50" height="50" relative="1" as="geometry">
            <mxPoint x="305.06" y="420" as="sourcePoint" />
            <mxPoint x="355.06" y="370" as="targetPoint" />
          </mxGeometry>
        </mxCell>
        <mxCell id="ReFvs0mVMOwca52qcI3t-60" value="N" style="edgeLabel;html=1;align=center;verticalAlign=middle;resizable=0;points=[];" vertex="1" connectable="0" parent="ReFvs0mVMOwca52qcI3t-55">
          <mxGeometry x="0.2813" y="-1" relative="1" as="geometry">
            <mxPoint x="5" y="-19" as="offset" />
          </mxGeometry>
        </mxCell>
        <mxCell id="ReFvs0mVMOwca52qcI3t-63" value="N" style="edgeLabel;html=1;align=center;verticalAlign=middle;resizable=0;points=[];" vertex="1" connectable="0" parent="ReFvs0mVMOwca52qcI3t-55">
          <mxGeometry x="-0.5882" y="1" relative="1" as="geometry">
            <mxPoint x="-17" y="-1" as="offset" />
          </mxGeometry>
        </mxCell>
        <mxCell id="ReFvs0mVMOwca52qcI3t-56" value="" style="endArrow=none;html=1;rounded=0;entryX=0.5;entryY=0;entryDx=0;entryDy=0;exitX=0.5;exitY=1;exitDx=0;exitDy=0;" edge="1" parent="1" source="ReFvs0mVMOwca52qcI3t-54" target="ReFvs0mVMOwca52qcI3t-38">
          <mxGeometry width="50" height="50" relative="1" as="geometry">
            <mxPoint x="340" y="520" as="sourcePoint" />
            <mxPoint x="450" y="470" as="targetPoint" />
          </mxGeometry>
        </mxCell>
        <mxCell id="ReFvs0mVMOwca52qcI3t-61" value="N" style="edgeLabel;html=1;align=center;verticalAlign=middle;resizable=0;points=[];" vertex="1" connectable="0" parent="ReFvs0mVMOwca52qcI3t-56">
          <mxGeometry x="-0.1146" y="1" relative="1" as="geometry">
            <mxPoint x="82" y="17" as="offset" />
          </mxGeometry>
        </mxCell>
        <mxCell id="ReFvs0mVMOwca52qcI3t-62" value="N" style="edgeLabel;html=1;align=center;verticalAlign=middle;resizable=0;points=[];" vertex="1" connectable="0" parent="ReFvs0mVMOwca52qcI3t-56">
          <mxGeometry x="-0.5254" y="-3" relative="1" as="geometry">
            <mxPoint x="-31" y="-1" as="offset" />
          </mxGeometry>
        </mxCell>
        <mxCell id="ReFvs0mVMOwca52qcI3t-57" value="&lt;u&gt;id&lt;/u&gt;" style="ellipse;whiteSpace=wrap;html=1;" vertex="1" parent="1">
          <mxGeometry x="80" y="250" width="60" height="40" as="geometry" />
        </mxCell>
        <mxCell id="ReFvs0mVMOwca52qcI3t-58" value="" style="endArrow=none;html=1;rounded=0;exitX=0.133;exitY=0.006;exitDx=0;exitDy=0;exitPerimeter=0;entryX=1;entryY=1;entryDx=0;entryDy=0;" edge="1" parent="1" source="ReFvs0mVMOwca52qcI3t-54" target="ReFvs0mVMOwca52qcI3t-57">
          <mxGeometry width="50" height="50" relative="1" as="geometry">
            <mxPoint x="230" y="430" as="sourcePoint" />
            <mxPoint x="280" y="380" as="targetPoint" />
          </mxGeometry>
        </mxCell>
        <mxCell id="ReFvs0mVMOwca52qcI3t-59" value="" style="endArrow=none;html=1;rounded=0;exitX=0.5;exitY=1;exitDx=0;exitDy=0;entryX=0.5;entryY=0;entryDx=0;entryDy=0;" edge="1" parent="1" source="ReFvs0mVMOwca52qcI3t-30" target="ReFvs0mVMOwca52qcI3t-34">
          <mxGeometry width="50" height="50" relative="1" as="geometry">
            <mxPoint x="580" y="330" as="sourcePoint" />
            <mxPoint x="630" y="280" as="targetPoint" />
          </mxGeometry>
        </mxCell>
      </root>
    </mxGraphModel>
  </diagram>
</mxfile>
